<?xml version="1.0" standalone="no"?>
<!DOCTYPE svg PUBLIC "-//W3C//DTD SVG 20010904//EN"
 "http://www.w3.org/TR/2001/REC-SVG-20010904/DTD/svg10.dtd">
<svg version="1.0" xmlns="http://www.w3.org/2000/svg"
 width="512.000000pt" height="512.000000pt" viewBox="0 0 512.000000 512.000000"
 preserveAspectRatio="xMidYMid meet">
<metadata>
Created by potrace 1.16, written by Peter Selinger 2001-2019
</metadata>
<g transform="translate(0.000000,512.000000) scale(0.100000,-0.100000)"
fill="#000000" stroke="none">
<path d="M2243 5103 c-68 -8 -123 -18 -123 -22 0 -3 28 -21 63 -40 194 -106
410 -273 608 -471 185 -185 293 -317 444 -545 157 -238 237 -384 350 -640 31
-71 58 -131 60 -133 1 -1 78 6 171 17 93 11 201 22 239 25 39 4 92 9 118 12
l48 6 -7 207 c-9 284 9 544 57 814 l21 118 -48 42 c-189 167 -467 338 -714
440 -171 71 -355 122 -560 158 -169 29 -547 35 -727 12z"/>
<path d="M1730 4986 c-334 -117 -652 -307 -905 -540 l-70 -64 60 -6 c496 -53
932 -252 1290 -588 213 -200 348 -367 491 -608 37 -63 68 -116 69 -118 1 -1
92 18 201 44 181 41 435 92 557 109 26 4 47 9 47 10 0 12 -115 256 -170 362
-275 527 -643 948 -1071 1226 -118 77 -335 191 -380 201 -14 3 -64 -9 -119
-28z"/>
<path d="M4436 4284 c-13 -45 -37 -271 -46 -443 -8 -161 -1 -504 11 -515 4 -4
592 15 597 20 10 7 -81 226 -149 364 -101 201 -220 378 -373 554 -30 34 -34
37 -40 20z"/>
<path d="M562 4163 c-179 -216 -350 -532 -442 -821 -132 -410 -158 -890 -70
-1303 21 -102 56 -239 62 -245 2 -2 53 36 114 84 558 447 1248 811 1984 1048
91 29 191 60 223 69 31 9 57 20 57 25 0 13 -70 128 -148 242 -161 235 -381
454 -617 613 -159 107 -405 220 -585 269 -137 36 -347 66 -474 66 l-64 0 -40
-47z"/>
<path d="M4702 3160 c-150 -4 -275 -10 -279 -13 -3 -3 3 -52 12 -109 56 -339
178 -697 317 -926 87 -145 251 -333 262 -301 35 105 79 329 97 487 25 232 -1
645 -52 835 -9 35 -12 37 -47 35 -20 -1 -160 -5 -310 -8z"/>
<path d="M4135 3130 c-252 -24 -425 -44 -425 -50 0 -4 11 -40 25 -81 103 -299
192 -693 234 -1029 33 -267 44 -429 44 -700 0 -265 -11 -403 -56 -712 -13 -87
-21 -158 -18 -158 12 0 165 111 257 186 298 245 547 575 718 956 l34 77 -117
118 c-67 68 -141 155 -174 204 -186 280 -320 646 -391 1064 -16 96 -26 130
-36 131 -8 1 -51 -2 -95 -6z"/>
<path d="M3320 3024 c-271 -49 -570 -117 -570 -130 0 -6 12 -38 26 -70 99
-223 177 -515 219 -820 22 -156 30 -502 16 -675 -38 -463 -131 -820 -304
-1169 -39 -80 -73 -148 -75 -152 -10 -22 266 4 457 42 137 28 380 107 526 173
139 63 119 24 164 317 47 307 61 470 61 724 0 349 -26 640 -86 976 -56 310
-201 821 -233 819 -9 -1 -99 -16 -201 -35z"/>
<path d="M2365 2796 c-631 -198 -1123 -426 -1630 -758 -209 -137 -553 -400
-554 -425 -2 -37 149 -329 243 -471 208 -312 511 -599 831 -790 325 -193 720
-319 1085 -347 l85 -7 52 89 c357 612 467 1487 283 2243 -45 182 -169 531
-189 529 -3 0 -96 -29 -206 -63z m-1693 -1257 c13 -5 45 -44 72 -85 26 -42 90
-126 141 -188 102 -124 115 -144 115 -176 0 -30 -53 -80 -83 -80 -36 0 -70 32
-179 167 -96 119 -161 213 -177 255 -13 38 5 84 41 102 39 19 41 19 70 5z
m838 -794 c113 -67 265 -142 374 -184 99 -38 116 -53 116 -103 0 -45 -35 -88
-72 -88 -83 0 -577 248 -622 312 -45 64 17 152 89 127 11 -4 63 -32 115 -64z"/>
</g>
</svg>
