<?xml version="1.0" standalone="no"?>
<!DOCTYPE svg PUBLIC "-//W3C//DTD SVG 20010904//EN"
 "http://www.w3.org/TR/2001/REC-SVG-20010904/DTD/svg10.dtd">
<svg version="1.0" xmlns="http://www.w3.org/2000/svg"
 width="300.000000pt" height="301.000000pt" viewBox="0 0 300.000000 301.000000"
 preserveAspectRatio="xMidYMid meet">
<metadata>
Created by potrace 1.16, written by Peter Selinger 2001-2019
</metadata>
<g transform="translate(0.000000,301.000000) scale(0.100000,-0.100000)"
fill="#000000" stroke="none">
<path d="M1326 2899 c-194 -25 -434 -115 -591 -221 -308 -209 -506 -488 -603
-852 -26 -96 -27 -112 -26 -326 1 -209 3 -232 27 -322 41 -156 118 -323 211
-463 56 -84 278 -308 358 -362 169 -112 338 -183 531 -225 133 -28 367 -30
507 -4 421 77 783 341 997 726 47 84 99 224 130 346 26 101 28 124 28 309 0
183 -3 209 -27 305 -67 268 -191 491 -373 675 -138 139 -259 222 -450 308
-211 95 -488 135 -719 106z m444 -143 c81 -18 217 -62 249 -80 22 -12 16 -16
-115 -80 -75 -36 -171 -87 -212 -112 l-75 -45 -54 37 c-30 21 -76 62 -103 92
-55 62 -125 186 -114 203 10 16 340 4 424 -15z m-531 -73 c48 -99 112 -183
191 -255 38 -35 70 -66 70 -69 0 -3 -26 -26 -57 -51 l-58 -45 -110 43 c-191
74 -383 123 -557 140 -38 3 -68 10 -68 14 0 20 169 139 270 190 52 27 248 99
270 99 10 1 29 -26 49 -66z m1015 -140 c75 -54 221 -198 276 -273 58 -79 88
-135 69 -128 -8 3 -52 22 -99 41 -47 19 -157 51 -245 72 -293 68 -477 113
-483 120 -9 9 21 30 103 72 85 44 295 132 314 133 7 0 36 -17 65 -37z m-1399
-242 c163 -30 425 -110 425 -130 0 -4 -32 -43 -71 -86 -39 -44 -91 -105 -115
-137 l-44 -56 -70 36 c-60 30 -82 36 -154 40 -141 7 -273 -31 -475 -139 -51
-27 -96 -48 -99 -45 -8 9 27 125 66 216 43 103 88 183 149 269 l46 64 116 -6
c64 -4 166 -15 226 -26z m884 -45 c58 -19 180 -51 271 -71 394 -89 497 -124
595 -203 115 -92 144 -151 166 -334 28 -241 -21 -507 -134 -733 -46 -94 -75
-137 -87 -130 -4 2 -13 26 -19 52 -41 167 -127 384 -213 538 -176 312 -397
550 -706 757 -84 57 -101 72 -92 83 12 15 99 75 108 75 3 0 53 -15 111 -34z
m-241 -193 c131 -76 238 -159 363 -283 275 -271 456 -596 553 -990 42 -170 46
-150 -39 -224 -153 -133 -343 -240 -519 -290 -105 -31 -118 -31 -173 -7 -143
65 -210 226 -304 726 -80 430 -118 570 -195 714 -24 46 -44 88 -44 94 0 26
247 307 269 307 4 0 44 -21 89 -47z m-581 -241 c23 -12 44 -26 48 -32 3 -5
-21 -59 -55 -119 -154 -277 -246 -572 -271 -870 -6 -69 -13 -151 -16 -181 l-5
-55 -45 50 c-83 92 -159 202 -210 301 -94 185 -130 324 -139 539 l-6 150 108
67 c134 81 211 120 306 153 94 33 218 31 285 -3z m181 -211 c48 -108 77 -219
151 -596 94 -472 136 -611 221 -723 22 -29 40 -57 40 -63 0 -24 -282 18 -415
62 -100 34 -274 117 -320 153 l-29 23 11 214 c13 234 31 346 89 536 50 166
187 463 213 463 5 0 22 -31 39 -69z"/>
</g>
</svg>
